Coordinates
version=1
nRows=14
nColumns=40
inDegrees=yes

Units are S.I. units (second, meters, Newtons, ...)
Angles are in degrees.

endheader
time	pelvis_tilt	pelvis_list	pelvis_rotation	pelvis_tx	pelvis_ty	pelvis_tz	hip_flexion_r	hip_adduction_r	hip_rotation_r	knee_angle_r	knee_angle_r_beta	ankle_angle_r	subtalar_angle_r	mtp_angle_r	hip_flexion_l	hip_adduction_l	hip_rotation_l	knee_angle_l	knee_angle_l_beta	ankle_angle_l	subtalar_angle_l	mtp_angle_l	lumbar_extension	lumbar_bending	lumbar_rotation	arm_flex_r	arm_add_r	arm_rot_r	elbow_flex_r	pro_sup_r	wrist_flex_r	wrist_dev_r	arm_flex_l	arm_add_l	arm_rot_l	elbow_flex_l	pro_sup_l	wrist_flex_l	wrist_dev_l
      0.33000000	    -11.09892162	     -0.97905249	     -0.53011845	     -0.76621134	      0.83390967	      0.22176867	     54.64371983	      1.07496761	     -5.72747065	    -85.00270510	     -1.48357708	     -1.57471237	    -17.83051231	     14.70417593	      6.33954399	      0.86225967	      9.39101979	    -37.45296710	     -0.65367759	     18.01486617	      2.37924880	    -16.96046808	     -2.04832662	      0.64194106	    -11.16947923	    -32.90670646	    -19.13612742	      1.19176971	     86.71587462	     89.95437384	      0.00000000	      0.00000000	     10.51409727	     25.96703606	    -17.92155928	    116.17788340	     89.95437384	      0.00000000	      0.00000000
      0.34000000	    -12.00629553	     -1.72758774	     -0.67350871	     -0.73139416	      0.83924234	      0.22333540	     56.72930501	      1.81766029	     -6.09945405	    -79.59252347	     -1.38915159	     -1.95462536	    -16.79607306	     14.52548378	      3.96671564	      1.61604566	      9.00290727	    -34.96148332	     -0.61019300	     13.98796850	      2.69090470	    -16.11592182	     -0.75401904	      1.59543773	    -11.56047961	    -35.18312895	    -19.17644830	     -0.03142875	     88.66159155	     89.95437384	      0.00000000	      0.00000000	     11.65946875	     25.63650689	    -17.38221486	    120.01000300	     89.95437384	      0.00000000	      0.00000000
      0.35000000	    -11.61550913	     -2.62903599	     -1.05445604	     -0.69474098	      0.84704561	      0.22542589	     56.53699732	      2.97713469	     -6.30459229	    -73.29822073	     -1.27929529	     -3.19866869	    -16.02259987	     14.36594936	      0.04228351	      2.78856262	      9.98513583	    -32.07172476	     -0.55975719	      8.06474997	      2.71952903	    -15.21690714	     -0.89230469	      2.70345825	    -11.60592842	    -37.16837064	    -19.11284838	     -1.09044574	     90.46408803	     89.95437384	      0.00000000	      0.00000000	     12.70898040	     25.27561147	    -17.05810031	    123.68058010	     89.95437384	      0.00000000	      0.00000000
      0.36000000	    -11.84109537	     -3.36359411	     -1.16995959	     -0.65809302	      0.85401555	      0.22718876	     56.59833799	      3.70851722	     -6.48436447	    -66.71208378	     -1.16434551	     -4.81212613	    -14.54846174	     14.27819725	     -2.79176265	      3.70067676	     10.68073420	    -29.53354042	     -0.51545752	      1.71397481	      3.52275910	    -13.68399178	     -0.26736986	      3.63012013	    -11.97314715	    -39.00882936	    -18.97042760	     -1.95324163	     92.04882671	     89.95437384	      0.00000000	      0.00000000	     13.31091968	     25.05071419	    -16.87646432	    127.22897420	     89.95437384	      0.00000000	      0.00000000
      0.37000000	    -11.77977842	     -4.03863988	     -1.25266979	     -0.62055121	      0.86122694	      0.22888136	     55.82880034	      4.34668331	     -6.66551382	    -59.79108229	     -1.04355125	     -6.57243865	    -13.01427602	     14.43053350	     -5.91037582	      4.45342376	     11.44462273	    -26.62458827	     -0.46468673	     -5.45554612	      4.81682963	    -11.48038234	      0.10608311	      4.49149690	    -12.23286549	    -40.73053523	    -18.73764728	     -2.70264498	     93.50655288	     89.95437384	      0.00000000	      0.00000000	     13.72786277	     24.81382353	    -17.13172820	    130.59180917	     89.95437384	      0.00000000	      0.00000000
      0.38000000	    -11.95308199	     -4.58385851	     -1.11406200	     -0.58292452	      0.86764453	      0.23036060	     54.99105448	      4.67996123	     -6.86205206	    -52.82348330	     -0.92194371	     -8.79301345	    -11.46750752	     14.89900091	     -8.40370207	      5.09327435	     12.05226533	    -23.77543355	     -0.41495960	    -14.17894941	      6.79254624	     -8.99505839	      0.79808808	      5.19133209	    -12.64348629	    -42.31212507	    -18.40556647	     -3.33594327	     94.77832290	     89.95437384	      0.00000000	      0.00000000	     13.89896774	     24.70474922	    -17.83540223	    133.76111360	     89.95437384	      0.00000000	      0.00000000
      0.39000000	    -11.92365133	     -4.84242618	     -1.17798681	     -0.54490509	      0.87371746	      0.23199443	     53.62505366	      5.00252719	     -6.74808622	    -45.89011246	     -0.80093356	    -11.19473833	    -10.52700312	     15.74276541	    -11.16294768	      5.24114309	     12.04799148	    -20.37223990	     -0.35556266	    -22.98995777	      8.78333996	     -6.15375814	      1.27754679	      5.58986125	    -12.74139312	    -43.69715776	    -18.03585398	     -3.83717805	     96.00899545	     89.95437384	      0.00000000	      0.00000000	     13.94247559	     24.68288801	    -18.82946916	    136.51177986	     89.95437384	      0.00000000	      0.00000000
      0.40000000	    -11.92292282	     -4.66299297	     -1.35250739	     -0.50700366	      0.87901683	      0.23331522	     52.19478237	      4.98602798	     -6.52840074	    -39.43346521	     -0.68824380	    -13.35443972	     -9.87336175	     19.54836792	    -13.74796576	      4.70190734	     10.22269861	    -17.33725705	     -0.30259222	    -26.88704396	      7.37867612	     12.56644863	      1.76668609	      5.55917656	    -12.59548904	    -44.86603683	    -17.71375141	     -4.20741351	     97.13285426	     89.95437384	      0.00000000	      0.00000000	     13.84552222	     24.73653292	    -20.18996834	    138.66039766	     89.95437384	      0.00000000	      0.00000000
      0.41000000	    -12.12878315	     -4.47423838	     -1.46727191	     -0.46966132	      0.88285336	      0.23456875	     51.04996953	      4.73462907	     -6.97322128	    -33.66294754	     -0.58752927	    -15.84531420	     -9.40240660	     20.19846693	    -15.44827719	      4.39482321	      8.47333162	    -15.38301095	     -0.26848419	    -32.34797975	      8.22471359	     13.74044690	      2.44417580	      5.53384653	    -12.47113308	    -45.80177963	    -17.50315828	     -4.46299225	     98.21461526	     89.95437384	      0.00000000	      0.00000000	     13.58080574	     24.66120830	    -21.48298498	    140.07679825	     89.95437384	      0.00000000	      0.00000000
      0.42000000	    -12.58562314	     -4.06956395	     -1.62834318	     -0.43297965	      0.88496359	      0.23569310	     50.40084980	      4.28888461	     -7.70887344	    -29.11076217	     -0.50807865	    -16.81159072	     -8.60803822	     20.27833769	    -15.74714420	      3.88291345	      6.46642816	    -15.78716496	     -0.27553801	    -34.21435289	      8.07874026	     14.01960797	      3.35870022	      5.29581565	    -12.11579234	    -46.61235820	    -17.35554926	     -4.68679816	     99.31832813	     89.95437384	      0.00000000	      0.00000000	     13.30597118	     24.57283019	    -22.95356762	    140.61021874	     89.95437384	      0.00000000	      0.00000000
      0.43000000	    -12.75786486	     -3.94229121	     -1.72856145	     -0.39668324	      0.88618664	      0.23643268	     49.67986354	      3.85056781	     -9.71689782	    -25.78863745	     -0.45009663	    -17.95961818	     -8.45673725	     20.32595992	    -15.79301315	      3.20507775	      3.14220684	    -17.50355481	     -0.30549466	    -33.77098795	      8.69801446	     14.48855851	      3.85558655	      5.42465744	    -11.75373259	    -47.09041705	    -17.52372446	     -4.82253350	    100.39868164	     89.95437384	      0.00000000	      0.00000000	     12.97275102	     24.42890844	    -24.35744426	    140.30229344	     89.95437384	      0.00000000	      0.00000000
      0.44000000	    -13.00885368	     -3.66852103	     -2.12388918	     -0.36101238	      0.88606755	      0.23787560	     49.20053582	      3.65407266	    -11.32398535	    -23.60639464	     -0.41200931	    -18.30489736	     -7.59381938	     19.88264400	    -15.05945202	      2.33765908	      1.07204433	    -20.66737476	     -0.36071374	    -32.02258651	      9.02210553	     14.15557721	      4.38404796	      5.35835012	    -10.92624928	    -47.27040238	    -17.83476244	     -4.73870051	    101.23799764	     89.95437384	      0.00000000	      0.00000000	     12.64726999	     24.34324353	    -26.01316360	    139.16482104	     89.95437384	      0.00000000	      0.00000000
      0.45000000	    -13.11692992	     -3.57595494	     -2.53638721	     -0.32551926	      0.88521992	      0.23956529	     48.77722595	      3.54985919	    -13.53097670	    -22.74252740	     -0.39693198	    -19.19305578	     -6.66966436	     19.38936322	    -14.06234460	      1.63002225	     -0.03593674	    -24.52453401	     -0.42803387	    -29.54076884	      9.82771303	     13.80213443	      4.69452519	      5.46627320	    -10.06990810	    -47.03771283	    -18.30463264	     -4.53831957	    101.76226099	     89.95437384	      0.00000000	      0.00000000	     12.00140990	     24.19814081	    -27.30486743	    137.41185575	     89.95437384	      0.00000000	      0.00000000
      0.46000000	    -13.14837635	     -3.54927200	     -2.92891670	     -0.29013933	      0.88379741	      0.24121558	     48.32416991	      3.50974756	    -15.28028740	    -22.95137679	     -0.40057709	    -19.58274701	     -5.28467046	     18.68419897	    -12.81145032	      1.12870617	     -0.29111044	    -28.73843175	     -0.50158026	    -27.71363843	      9.74295056	     13.74239067	      4.89914781	      5.62796327	     -9.25207027	    -46.34834386	    -19.00230260	     -4.11225324	    101.89604063	     89.95437384	      0.00000000	      0.00000000	     10.99483824	     23.93944311	    -28.23937274	    134.99956056	     89.95437384	      0.00000000	      0.00000000
